<svg width="102" height="80" viewBox="0 0 102 80" fill="none" xmlns="http://www.w3.org/2000/svg">
<path d="M10.6566 79.1484H8.08368L4.45808 70.1304L2.57233 79.1484H0L2.80137 65.7268H5.38307L9.01748 74.7079L10.8944 65.7268H13.4579L10.6566 79.1484Z" fill="black"/>
<path d="M22.7282 75.1016H16.1366C16.1305 75.2057 16.1272 75.285 16.1272 75.3395C16.1272 75.9864 16.3117 76.5084 16.6811 76.9048C17.0505 77.3018 17.5004 77.5 18.0317 77.5C18.9044 77.5 19.5849 77.0485 20.0733 76.145L22.4265 76.5387C21.9689 77.4846 21.3567 78.1943 20.5908 78.6672C19.8249 79.1402 18.9655 79.3769 18.0135 79.3769C16.7075 79.3769 15.6455 78.9634 14.8273 78.1365C14.0091 77.3095 13.6006 76.2155 13.6006 74.8544C13.6006 73.4934 13.97 72.3399 14.7084 71.3021C15.7154 69.8981 17.153 69.1961 19.0205 69.1961C20.2109 69.1961 21.1568 69.5639 21.8588 70.2994C22.5608 71.035 22.9115 72.0652 22.9115 73.3893C22.9115 74.0241 22.8504 74.5951 22.7282 75.1016ZM20.5126 73.4994C20.5187 73.3838 20.522 73.2952 20.522 73.2341C20.522 72.5139 20.3601 71.9738 20.0369 71.6137C19.7132 71.2536 19.2799 71.0736 18.737 71.0736C18.1941 71.0736 17.7068 71.2784 17.2768 71.6869C16.8463 72.096 16.555 72.7 16.4025 73.4994H20.5132H20.5126Z" fill="black"/>
<path d="M23.1636 76.4297L25.7089 76.0267C25.9347 76.564 26.2155 76.9439 26.5513 77.1664C26.8872 77.3894 27.3447 77.5006 27.9245 77.5006C28.5042 77.5006 29.0014 77.3662 29.3621 77.0976C29.612 76.9142 29.7376 76.6918 29.7376 76.4291C29.7376 76.2524 29.6737 76.0933 29.5454 75.9529C29.4111 75.8185 29.0477 75.6539 28.4558 75.4585C26.869 74.9338 25.8862 74.5186 25.508 74.2136C24.9161 73.7373 24.6199 73.1152 24.6199 72.346C24.6199 71.5768 24.9067 70.915 25.4804 70.3595C26.2799 69.5843 27.4669 69.1967 29.0416 69.1967C30.2925 69.1967 31.239 69.4257 31.8799 69.8832C32.5208 70.3408 32.9265 70.9607 33.0978 71.742L30.6713 72.1632C30.5431 71.8092 30.3355 71.5438 30.0486 71.3665C29.6577 71.1287 29.1881 71.0092 28.6386 71.0092C28.0891 71.0092 27.6938 71.1006 27.4532 71.2839C27.212 71.4673 27.0914 71.6776 27.0914 71.9155C27.0914 72.1533 27.2137 72.3609 27.4576 72.5194C27.6101 72.6174 28.1012 72.7881 28.9315 73.032C30.2133 73.4042 31.0705 73.7704 31.5044 74.1305C32.1144 74.637 32.42 75.2476 32.42 75.9617C32.42 76.8834 32.0324 77.6828 31.2572 78.3606C30.4819 79.0384 29.3896 79.377 27.9795 79.377C26.5695 79.377 25.4909 79.1193 24.725 78.6034C23.9592 78.0875 23.4389 77.3629 23.1641 76.4291L23.1636 76.4297Z" fill="black"/>
<path d="M34.4014 71.3758L34.8044 69.4257H36.0862L36.4066 67.8692L39.4188 66.0566L38.7141 69.4257H40.3163L39.9133 71.3758H38.3017L37.4505 75.4502C37.298 76.1885 37.2215 76.6097 37.2215 76.7138C37.2215 76.9153 37.2853 77.0722 37.4136 77.1851C37.5419 77.2979 37.7737 77.3546 38.1096 77.3546C38.2252 77.3546 38.5153 77.3332 38.9795 77.2908L38.5676 79.2409C38.1162 79.3323 37.652 79.378 37.1758 79.378C36.248 79.378 35.5736 79.1996 35.1524 78.8423C34.7312 78.485 34.5208 77.9895 34.5208 77.3546C34.5208 77.0557 34.6337 76.3658 34.8595 75.2855L35.6743 71.3764H34.4019L34.4014 71.3758Z" fill="black"/>
<path d="M47.6591 79.1484H44.894L47.7048 65.7268H53.6649C54.69 65.7268 55.4884 65.832 56.0588 66.0428C56.6292 66.2532 57.09 66.6397 57.4413 67.2007C57.792 67.7623 57.9677 68.4428 57.9677 69.2423C57.9677 70.3837 57.6258 71.3252 56.9425 72.0668C56.2587 72.8084 55.2241 73.2676 53.8388 73.4449C54.1929 73.7626 54.5254 74.1805 54.8365 74.6991C55.4532 75.7491 56.1397 77.2324 56.8962 79.1484H53.9297C53.6918 78.3919 53.2249 77.2104 52.529 75.6054C52.1507 74.7388 51.7477 74.1557 51.3205 73.8567C51.0578 73.68 50.6003 73.5914 49.9473 73.5914H48.8214L47.6585 79.1484H47.6591ZM49.2431 71.5768H50.7082C52.1915 71.5768 53.1754 71.4881 53.661 71.3114C54.1461 71.1346 54.526 70.8566 54.8007 70.4784C55.0755 70.1001 55.2125 69.7031 55.2125 69.288C55.2125 68.7996 55.0143 68.4335 54.6174 68.1896C54.3729 68.0431 53.8454 67.9699 53.0333 67.9699H49.9936L49.2426 71.5773L49.2431 71.5768Z" fill="black"/>
<path d="M67.6408 75.1016H61.0492C61.0431 75.2057 61.0398 75.285 61.0398 75.3395C61.0398 75.9864 61.2243 76.5084 61.5937 76.9048C61.9631 77.3018 62.413 77.5 62.9443 77.5C63.817 77.5 64.4975 77.0485 64.9859 76.145L67.3391 76.5387C66.8815 77.4846 66.2693 78.1943 65.5034 78.6672C64.7375 79.1402 63.8781 79.3769 62.9261 79.3769C61.6201 79.3769 60.5581 78.9634 59.7399 78.1365C58.9217 77.3095 58.5132 76.2155 58.5132 74.8544C58.5132 73.4934 58.8826 72.3399 59.621 71.3021C60.628 69.8981 62.0656 69.1961 63.9331 69.1961C65.1235 69.1961 66.0694 69.5639 66.7714 70.2994C67.4734 71.035 67.8241 72.0652 67.8241 73.3893C67.8241 74.0241 67.763 74.5951 67.6408 75.1016ZM65.4252 73.4994C65.4313 73.3838 65.4346 73.2952 65.4346 73.2341C65.4346 72.5139 65.2727 71.9738 64.9495 71.6137C64.6258 71.2536 64.1925 71.0736 63.6496 71.0736C63.1067 71.0736 62.6194 71.2784 62.1894 71.6869C61.7589 72.096 61.4676 72.7 61.3151 73.4994H65.4258H65.4252Z" fill="black"/>
<path d="M70.4839 69.4257H72.9742L72.7176 70.6893C73.3403 70.1525 73.9217 69.7693 74.4618 69.5402C75.002 69.3112 75.5713 69.1967 76.1692 69.1967C76.9687 69.1967 77.5991 69.4257 78.0599 69.8832C78.5208 70.3408 78.7509 70.9486 78.7509 71.7051C78.7509 72.047 78.6501 72.694 78.4486 73.6459L77.304 79.1485H74.6766L75.83 73.6278C76.0007 72.8035 76.0866 72.3124 76.0866 72.1539C76.0866 71.818 75.9875 71.5543 75.7893 71.3621C75.5911 71.17 75.3147 71.0736 74.9607 71.0736C74.5764 71.0736 74.1486 71.2355 73.6789 71.5587C73.2087 71.8824 72.8398 72.3097 72.5711 72.8404C72.3757 73.2187 72.156 73.9912 71.9121 75.1567L71.079 79.1485H68.4517L70.4844 69.4257H70.4839Z" fill="black"/>
<path d="M80.3398 71.3758L80.7429 69.4257H82.0246L82.3451 67.8692L85.3573 66.0566L84.6526 69.4257H86.2548L85.8517 71.3758H84.2402L83.389 75.4502C83.2365 76.1885 83.1599 76.6097 83.1599 76.7138C83.1599 76.9153 83.2238 77.0722 83.3521 77.1851C83.4804 77.2979 83.7122 77.3546 84.048 77.3546C84.1637 77.3546 84.4538 77.3332 84.918 77.2908L84.5061 79.2409C84.0546 79.3323 83.5905 79.378 83.1142 79.378C82.1865 79.378 81.512 79.1996 81.0908 78.8423C80.6696 78.485 80.4593 77.9895 80.4593 77.3546C80.4593 77.0557 80.5722 76.3658 80.7979 75.2855L81.6128 71.3764H80.3404L80.3398 71.3758Z" fill="black"/>
<path d="M89.4448 72.1814L86.8813 71.9617C87.1742 71.0951 87.6851 70.4173 88.4146 69.9289C89.1442 69.4406 90.1099 69.1967 91.3124 69.1967C92.5148 69.1967 93.4883 69.4483 94.0862 69.9521C94.6842 70.4558 94.9837 71.0709 94.9837 71.7971C94.9837 72.09 94.9578 72.4011 94.906 72.7309C94.8543 73.0607 94.6726 73.9273 94.3615 75.3307C94.1049 76.4903 93.9772 77.3024 93.9772 77.766C93.9772 78.1811 94.0504 78.6419 94.1969 79.1485H91.6427C91.5387 78.7945 91.4748 78.4283 91.4506 78.0501C91.0663 78.4773 90.6236 78.8055 90.1231 79.0345C89.6226 79.2635 89.1188 79.3781 88.6123 79.3781C87.8068 79.3781 87.1411 79.1143 86.6164 78.5863C86.0912 78.0583 85.8291 77.3794 85.8291 76.5492C85.8291 75.6214 86.1176 74.8798 86.6941 74.3243C87.2711 73.7687 88.3007 73.4334 89.7839 73.3172C91.0349 73.2137 91.8712 73.0882 92.2924 72.9417C92.4025 72.5756 92.457 72.2827 92.457 72.063C92.457 71.7822 92.3442 71.5471 92.1184 71.3583C91.8927 71.1689 91.5568 71.0747 91.1114 71.0747C90.6412 71.0747 90.2707 71.1711 89.9992 71.3632C89.7278 71.5554 89.5428 71.8285 89.4453 72.1825L89.4448 72.1814ZM91.9444 74.6166C91.7859 74.6596 91.575 74.6992 91.3129 74.7355C89.9948 74.8941 89.1337 75.1265 88.7312 75.4315C88.4444 75.6512 88.3007 75.9474 88.3007 76.3196C88.3007 76.6246 88.4108 76.8828 88.6305 77.0931C88.8502 77.3035 89.1403 77.4092 89.5004 77.4092C89.8968 77.4092 90.2707 77.3128 90.6219 77.1207C90.9727 76.9285 91.2353 76.6813 91.4093 76.379C91.5833 76.0768 91.7374 75.6055 91.8718 74.9646L91.945 74.6166H91.9444Z" fill="black"/>
<path d="M95.959 79.1484L98.7697 65.7268H101.388L98.5869 79.1484H95.9595H95.959Z" fill="black"/>
<path d="M69.0668 8.11646C67.7729 7.52899 66.0341 6.86443 63.9144 6.38763C63.05 6.19327 60.7094 5.71261 57.6267 5.74344C56.4931 5.755 54.3012 5.8453 51.7459 6.42121C49.8739 6.84296 45.4302 7.89678 41.1703 11.3363C34.734 16.5338 33.1483 23.6022 32.8994 24.7931C31.4024 31.9612 33.7842 37.5953 34.5941 39.4365C36.1115 42.8853 38.0793 45.1659 39.0004 46.2158C42.3854 50.0738 45.8855 51.921 46.6607 52.3174C48.7623 53.391 50.5313 53.913 50.9487 54.0292C52.1627 54.3667 53.222 54.5451 54.0275 54.6447C52.6814 54.9663 50.9002 55.2691 48.7964 55.2999C47.916 55.3131 45.5293 55.3038 42.7631 54.6221C37.4737 53.3184 33.9295 50.3502 32.7975 49.4021C27.6644 45.1025 22.8733 37.1466 23.0015 27.8439C23.1772 15.1083 32.5112 4.14895 43.2939 0.997952C51.3043 -1.34258 58.3843 1.13119 59.1348 1.40483C64.2106 3.25535 67.4651 6.35404 69.0662 8.11646H69.0668Z" fill="url(#paint0_linear_103_319)"/>
<path d="M32.5158 28.6802C32.2323 34.5412 34.2403 38.8137 35.0469 40.476C35.0469 40.476 35.7489 41.9234 37.1683 43.8901C37.1683 43.8901 40.0242 47.8709 43.5942 50.419C44.2895 50.915 45.2938 51.5471 46.0514 51.9782C46.3465 52.1461 46.6945 52.34 47.1785 52.5756C47.5534 52.7562 47.7918 52.8625 47.9449 52.9274C47.9691 52.9379 48.0192 52.9588 48.0181 52.961C48.0148 52.9693 47.2754 52.6923 47.0909 52.6224C45.2316 51.9166 43.3513 50.8137 42.2326 50.1255C41.4656 49.6195 38.9434 47.894 36.4476 44.8603C36.4476 44.8603 36.1249 44.4682 35.8315 44.0828C34.1659 41.8943 30.8624 36.8019 30.7644 29.7423C30.6472 21.3018 35.1757 14.1178 40.4701 10.1503C44.3446 7.24652 48.5114 6.15361 49.6445 5.87942C52.9354 5.08327 55.7571 5.11906 56.8985 5.13393C57.6109 5.14274 58.8343 5.14714 60.4239 5.40537C61.193 5.53035 61.8312 5.67735 62.2882 5.79518C62.8096 5.9064 63.2379 6.02532 63.5567 6.12278C63.876 6.22023 64.1409 6.31328 64.2741 6.36008C64.7217 6.51755 65.0945 6.66675 65.1303 6.67942C65.1407 6.68327 65.1507 6.68768 65.1611 6.69153C65.1622 6.69153 65.1699 6.69428 65.1793 6.69979C65.1837 6.70199 65.1897 6.70585 65.1897 6.70695C65.1881 6.7119 65.0664 6.67501 65.0664 6.67501C64.9585 6.64253 64.8484 6.6172 64.7394 6.58747C64.5522 6.53627 64.3446 6.48781 64.1618 6.44487C63.68 6.332 63.2203 6.24446 62.9555 6.19656C62.9555 6.19656 62.8751 6.18224 62.7914 6.16792C60.9623 5.85244 59.3398 5.76765 59.3398 5.76765C58.9312 5.74618 57.1259 5.66469 54.6169 5.97082C52.4773 6.23234 49.0912 6.67777 45.4425 8.70502C40.1414 11.4497 37.296 15.48 36.4035 16.8399C34.907 19.1204 32.7812 23.2135 32.5169 28.6808L32.5158 28.6802Z" fill="#44963B"/>
<path d="M78.3884 29.7198C78.3741 42.3155 67.5589 50.3507 61.3726 51.888C57.0053 52.9732 51.5187 52.2035 49.1799 51.3099C47.5446 50.6849 46.0652 49.7908 46.0652 49.7908C45.1782 49.2545 44.4514 48.7183 43.8882 48.2607C44.9359 48.5046 46.4264 48.7656 48.2213 48.792C56.4889 48.9115 62.128 43.9017 62.9324 43.1651C64.0434 42.147 66.5387 39.8092 68.0847 35.8434C69.6577 31.8076 69.3692 28.3395 69.2035 26.5897C69.0455 24.9192 68.5263 20.1088 64.9668 15.4376C60.8021 9.97306 55.1889 8.25964 53.3291 7.77733C55.6437 7.3264 59.5441 6.92557 63.8144 8.38737C72.3231 11.3 78.4005 20.2723 78.3895 29.7192L78.3884 29.7198Z" fill="url(#paint1_linear_103_319)"/>
<path d="M70.5242 28.7931C70.5116 30.9024 70.1504 36.7403 65.7787 41.8095C62.7555 45.3156 59.2152 46.8286 57.6565 47.3952C55.2097 48.2849 53.0377 48.5167 51.5527 48.5624C53.2706 48.2822 55.8357 47.6644 58.6266 46.1652C60.8174 44.9886 62.2671 43.7415 62.7621 43.301C63.8572 42.3265 66.3045 40.1005 67.8946 36.3097C69.3757 32.7794 69.3818 29.7324 69.3041 28.0476C69.221 26.239 68.9864 23.6523 67.8974 20.7601C67.1524 18.7807 66.244 17.2352 65.5079 16.15C64.7624 15.1342 64.0378 14.3122 63.4233 13.6757C63.4233 13.6757 62.386 12.601 61.0591 11.5372C60.5779 11.1518 60.0251 10.7879 59.9882 10.7642C59.9882 10.7642 59.9855 10.7626 59.9833 10.7609C59.9547 10.7428 59.8137 10.6525 59.8148 10.6503C59.8148 10.6497 59.8264 10.6563 59.8302 10.6585C61.5503 11.643 61.9147 11.8902 61.9147 11.8902C62.0838 12.0047 62.7852 12.4837 63.5417 13.1328C63.5417 13.1328 65.1544 14.5214 66.5248 16.4545C70.5672 22.158 70.5248 28.7926 70.5248 28.7926L70.5242 28.7931Z" fill="#125082"/>
<defs>
<linearGradient id="paint0_linear_103_319" x1="46.043" y1="17.3817" x2="45.2165" y2="76.3416" gradientUnits="userSpaceOnUse">
<stop stop-color="#AED290"/>
<stop offset="0.03" stop-color="#A6CE87"/>
<stop offset="0.13" stop-color="#96C773"/>
<stop offset="0.24" stop-color="#8AC166"/>
<stop offset="0.38" stop-color="#83BE5E"/>
<stop offset="0.64" stop-color="#82BE5C"/>
</linearGradient>
<linearGradient id="paint1_linear_103_319" x1="61.1771" y1="29.9659" x2="61.4904" y2="-42.2802" gradientUnits="userSpaceOnUse">
<stop stop-color="#1D6295"/>
<stop offset="0.08" stop-color="#356E9E"/>
<stop offset="0.2" stop-color="#537DA9"/>
<stop offset="0.31" stop-color="#6888B1"/>
<stop offset="0.43" stop-color="#748EB6"/>
<stop offset="0.53" stop-color="#7991B8"/>
</linearGradient>
</defs>
</svg>
